# xmcd
#
# Track frame offsets:
#	150
#	24768
#	42842
#	60078
#	79136
#	96362
#	112066
#	130220
#	148561
#	163111
#	179015
#	195650
#	210500
#	226824
#	238766
#	254007
#	270010
#	286984
#	299670
#	318793
#
# Disc length: 4504 seconds
#
# Revision: 1
# Processed by: cddbd v1.5.2PL0 Copyright (c) Steve Scherf et al.
# Submitted via: dBpowerAMP V4.0
#
DISCID=1c119614
DTITLE=Various Artist - Hott Urban Volume 16 Can
DYEAR=2016
DGENRE=Urban
TTITLE0=DJ Khaled ft. Nicki Minaj, Chris Brown, August Alsina, Jeremih, Future And Rick Ross - Do You Mind
TTITLE1=Desiigner - Tiimmy Turner
TTITLE2=French Montana ft. Drake - No Shopping
TTITLE3=Twenty88 - Deja Vu
TTITLE4=Dreezy ft. t-Pain - Close To You
TTITLE5=Jidenna - Little Bit More
TTITLE6=Maxwell - 1990X
TTITLE7=Fantasia - Sleeping With The One I Love
TTITLE8=Kehlani - Crzy
TTITLE9=Fifth Harmony ft. Fetty Wap - All In My Head (Flex)
TTITLE10=DJ Luke Nasty - OTW
TTITLE11=Trap Beckham - Birthday Chick
TTITLE12=Wash ft. Kevin Gates - Where You Been
TTITLE13=Kamaiyah - How Does It Feel
TTITLE14=Mila J - Kickin' Back
TTITLE15=Kid Ink ft. Jeremih And Spice - Nasty
TTITLE16=Andra Day - Gold
TTITLE17=Kool and The Gang - Sexy (Where'd You Get Yours)
TTITLE18=Pusha t ft. Jay Z - Drug Dealers Anonymous
TTITLE19=Gregory Porter ft. Kem - Holding On
EXTD=
EXTT0=
EXTT1=
EXTT2=
EXTT3=
EXTT4=
EXTT5=
EXTT6=
EXTT7=
EXTT8=
EXTT9=
EXTT10=
EXTT11=
EXTT12=
EXTT13=
EXTT14=
EXTT15=
EXTT16=
EXTT17=
EXTT18=
EXTT19=
PLAYORDER=
